# xmcd
#
# Track frame offsets:
#	150
#	16001
#	35745
#	51596
#	67713
#	81439
#	99472
#	116527
#	134380
#	148119
#	167107
#	179937
#	195123
#	215244
#	230591
#	249038
#	262681
#	280298
#
# Disc length: 3949 seconds
#
# Revision: 1
# Processed by: cddbd v1.5.2PL0 Copyright (c) Steve Scherf et al.
# Submitted via: EZCDAudioConverter 2.1.5.1
#
DISCID=040f6b12
DTITLE=Various Artist - My Country Vol 4 - CD 1
DYEAR=2013
DGENRE=US Country 00s, 10s
TTITLE0=Blake Shelton - Honey Bee
TTITLE1=Brooks and Dunn - Red Dirt Road
TTITLE2=Florida Georgia Line - Cruise
TTITLE3=Tim McGraw - Just To See You Smile
TTITLE4=Zac Brown Band - Jump Right In
TTITLE5=Hunter Hayes - Storm Warning
TTITLE6=Luke Bryan - Country Girl (Shake It For Me)
TTITLE7=Toby Keith - I Love This Bar
TTITLE8=George Strait - Here For A Good Time
TTITLE9=Sheryl Crow - Easy
TTITLE10=Gretchen Wilson - California Girls
TTITLE11=Billy Currington - Hey Girl
TTITLE12=Brad Paisley - She's Everything
TTITLE13=Charlie Worsham - Could It Be
TTITLE14=Alan Jackson - Country Boy
TTITLE15=Brett Eldredge - Don't Ya
TTITLE16=Lee Brice - I Drive Your Truck
TTITLE17=Randy Travis - Forever And Ever, Amen
EXTD=
EXTT0=
EXTT1=
EXTT2=
EXTT3=
EXTT4=
EXTT5=
EXTT6=
EXTT7=
EXTT8=
EXTT9=
EXTT10=
EXTT11=
EXTT12=
EXTT13=
EXTT14=
EXTT15=
EXTT16=
EXTT17=
PLAYORDER=
